<svg version="1.2" xmlns="http://www.w3.org/2000/svg" viewBox="0 0 300 300" width="300" height="300"><style>.a{paint-order:stroke fill markers;stroke:#000;stroke-width: 24;stroke-linejoin: round;;fill:#92a8ec}</style><path class="a" d="m52.3 273.8q-7-0.1-11.6-4.6-4.2-4.6-4.2-11.2 0-2.8 1.8-7l89.2-210.7q2.8-6.3 7.7-10.2 5.2-4.2 12.6-4.2h3.5q7.3 0 12.2 4.2 5.3 3.9 8.1 10.2l89.3 210.7q1.7 4.2 1.7 7 0 6.6-4.6 11.2-4.2 4.5-11.2 4.5-4.9 0-9-2.4-3.9-2.8-6-7.4l-22.8-54.6h-119l-22.7 54.6q-2.1 4.6-6.3 7.4-3.8 2.4-8.7 2.4zm97.2-207.2l-47.2 113.8h94.5z"/></svg>